<svg width="720" height="720" viewBox="0 0 720 720" fill="none" xmlns="http://www.w3.org/2000/svg">
  <rect width="720" height="720" rx="40" fill="#FFFDF9"/>
  <rect x="48" y="48" width="624" height="624" rx="24" fill="#ffffff" stroke="#D9CEC2" stroke-width="8"/>
  <rect x="96" y="96" width="128" height="128" fill="#2C211A"/>
  <rect x="116" y="116" width="88" height="88" fill="#FFFDF9"/>
  <rect x="136" y="136" width="48" height="48" fill="#2C211A"/>
  <rect x="496" y="96" width="128" height="128" fill="#2C211A"/>
  <rect x="516" y="116" width="88" height="88" fill="#FFFDF9"/>
  <rect x="536" y="136" width="48" height="48" fill="#2C211A"/>
  <rect x="96" y="496" width="128" height="128" fill="#2C211A"/>
  <rect x="116" y="516" width="88" height="88" fill="#FFFDF9"/>
  <rect x="136" y="536" width="48" height="48" fill="#2C211A"/>
  <rect x="286" y="98" width="22" height="22" fill="#2C211A"/>
  <rect x="330" y="98" width="22" height="22" fill="#2C211A"/>
  <rect x="374" y="98" width="22" height="22" fill="#2C211A"/>
  <rect x="286" y="142" width="22" height="22" fill="#2C211A"/>
  <rect x="418" y="142" width="22" height="22" fill="#2C211A"/>
  <rect x="264" y="264" width="22" height="22" fill="#2C211A"/>
  <rect x="308" y="264" width="22" height="22" fill="#2C211A"/>
  <rect x="352" y="264" width="22" height="22" fill="#2C211A"/>
  <rect x="396" y="264" width="22" height="22" fill="#2C211A"/>
  <rect x="440" y="264" width="22" height="22" fill="#2C211A"/>
  <rect x="220" y="308" width="22" height="22" fill="#2C211A"/>
  <rect x="264" y="308" width="22" height="22" fill="#2C211A"/>
  <rect x="352" y="308" width="22" height="22" fill="#2C211A"/>
  <rect x="440" y="308" width="22" height="22" fill="#2C211A"/>
  <rect x="484" y="308" width="22" height="22" fill="#2C211A"/>
  <rect x="242" y="352" width="22" height="22" fill="#2C211A"/>
  <rect x="286" y="352" width="22" height="22" fill="#2C211A"/>
  <rect x="330" y="352" width="22" height="22" fill="#2C211A"/>
  <rect x="418" y="352" width="22" height="22" fill="#2C211A"/>
  <rect x="462" y="352" width="22" height="22" fill="#2C211A"/>
  <rect x="506" y="352" width="22" height="22" fill="#2C211A"/>
  <rect x="220" y="396" width="22" height="22" fill="#2C211A"/>
  <rect x="308" y="396" width="22" height="22" fill="#2C211A"/>
  <rect x="352" y="396" width="22" height="22" fill="#2C211A"/>
  <rect x="396" y="396" width="22" height="22" fill="#2C211A"/>
  <rect x="484" y="396" width="22" height="22" fill="#2C211A"/>
  <rect x="264" y="440" width="22" height="22" fill="#2C211A"/>
  <rect x="352" y="440" width="22" height="22" fill="#2C211A"/>
  <rect x="396" y="440" width="22" height="22" fill="#2C211A"/>
  <rect x="440" y="440" width="22" height="22" fill="#2C211A"/>
  <rect x="220" y="484" width="22" height="22" fill="#2C211A"/>
  <rect x="264" y="484" width="22" height="22" fill="#2C211A"/>
  <rect x="330" y="484" width="22" height="22" fill="#2C211A"/>
  <rect x="374" y="484" width="22" height="22" fill="#2C211A"/>
  <rect x="440" y="484" width="22" height="22" fill="#2C211A"/>
  <rect x="484" y="484" width="22" height="22" fill="#2C211A"/>
  <rect x="220" y="528" width="22" height="22" fill="#2C211A"/>
  <rect x="308" y="528" width="22" height="22" fill="#2C211A"/>
  <rect x="352" y="528" width="22" height="22" fill="#2C211A"/>
  <rect x="396" y="528" width="22" height="22" fill="#2C211A"/>
  <rect x="484" y="528" width="22" height="22" fill="#2C211A"/>
  <rect x="528" y="528" width="22" height="22" fill="#2C211A"/>
  <text x="360" y="690" text-anchor="middle" fill="#7A614E" font-size="28" font-family="Georgia, serif">Demo PromptPay QR</text>
</svg>
